<?xml version="1.0" encoding="UTF-8" standalone="no"?>
<!-- Created with Inkscape (http://www.inkscape.org/) -->

<svg
   width="1024"
   height="1024"
   viewBox="0 0 1024 1024"
   version="1.1"
   id="svg1"
   inkscape:version="1.3 (0e150ed6c4, 2023-07-21)"
   sodipodi:docname="fake-new-rails.svg"
   xml:space="preserve"
   xmlns:inkscape="http://www.inkscape.org/namespaces/inkscape"
   xmlns:sodipodi="http://sodipodi.sourceforge.net/DTD/sodipodi-0.dtd"
   xmlns:xlink="http://www.w3.org/1999/xlink"
   xmlns="http://www.w3.org/2000/svg"
   xmlns:svg="http://www.w3.org/2000/svg"><sodipodi:namedview
     id="namedview1"
     pagecolor="#ffffff"
     bordercolor="#666666"
     borderopacity="1.0"
     inkscape:showpageshadow="2"
     inkscape:pageopacity="0.0"
     inkscape:pagecheckerboard="0"
     inkscape:deskcolor="#d1d1d1"
     inkscape:document-units="px"
     showgrid="true"
     inkscape:zoom="2.8284271"
     inkscape:cx="481.36294"
     inkscape:cy="822.18841"
     inkscape:window-width="2560"
     inkscape:window-height="1375"
     inkscape:window-x="0"
     inkscape:window-y="0"
     inkscape:window-maximized="1"
     inkscape:current-layer="metals"><inkscape:grid
       visible="true"
       id="grid1"
       units="px"
       originx="0"
       originy="0"
       spacingx="1"
       spacingy="1"
       empcolor="#0099e5"
       empopacity="0.30196078"
       color="#0099e5"
       opacity="0.14901961"
       empspacing="32"
       dotted="false"
       gridanglex="30"
       gridanglez="30"
       enabled="true" /><inkscape:grid
       id="grid42"
       units="px"
       originx="0"
       originy="0"
       spacingx="2"
       spacingy="2"
       empcolor="#0099e5"
       empopacity="0.30196078"
       color="#0099e5"
       opacity="0.14901961"
       empspacing="4"
       dotted="false"
       gridanglex="30"
       gridanglez="30"
       visible="true"
       enabled="false" /></sodipodi:namedview><defs
     id="defs1" /><g
     inkscape:groupmode="layer"
     id="spriteboxes"
     inkscape:label="spriteboxes"><rect
       style="fill:none;fill-opacity:0.222722;stroke:none;stroke-width:2.23081;stroke-linecap:round;stroke-linejoin:round;stroke-dasharray:none;stroke-opacity:1"
       id="orthogonal-to-half-diagonal"
       width="182"
       height="112"
       x="242"
       y="616"
       inkscape:export-filename="orthogonal-to-half-diagonal-1.png"
       inkscape:export-xdpi="96"
       inkscape:export-ydpi="96" /><rect
       style="fill:none;fill-opacity:0.222722;stroke:none;stroke-width:2.43027;stroke-linecap:round;stroke-linejoin:round;stroke-dasharray:none;stroke-opacity:1"
       id="diagonal-to-half-diagonal"
       width="168"
       height="144"
       x="232"
       y="424"
       inkscape:export-filename="diagonal-to-half-diagonal-1.png"
       inkscape:export-xdpi="96"
       inkscape:export-ydpi="96" /><rect
       style="fill:none;fill-opacity:0.222722;stroke:none;stroke-width:2.09163;stroke-linecap:round;stroke-linejoin:round;stroke-dasharray:none;stroke-opacity:1"
       id="half-diagonal"
       width="160"
       height="112"
       x="16"
       y="328"
       inkscape:export-filename="half-diagonal-1.png"
       inkscape:export-xdpi="96"
       inkscape:export-ydpi="96" /><rect
       style="fill:none;fill-opacity:0.222722;stroke:none;stroke-width:1.47902;stroke-linecap:round;stroke-linejoin:round;stroke-dasharray:none;stroke-opacity:1"
       id="orthogonal"
       width="80"
       height="112"
       x="56"
       y="488"
       inkscape:export-filename="siderails-orthogonal-1.png"
       inkscape:export-xdpi="96"
       inkscape:export-ydpi="96" /><rect
       style="fill:#000000;fill-opacity:0;stroke:none;stroke-width:52.8935;stroke-linejoin:round;stroke-opacity:0.5"
       id="ramp-south"
       width="128"
       height="544"
       x="576"
       y="448"
       inkscape:export-filename="./ramp-2.png"
       inkscape:export-xdpi="96"
       inkscape:export-ydpi="96" /><rect
       style="fill:#000000;fill-opacity:0;stroke:none;stroke-width:57.3711;stroke-linejoin:round;stroke-opacity:0.5"
       id="ramp-north"
       width="128"
       height="640"
       x="736"
       y="352"
       inkscape:export-filename="./ramp-4.png"
       inkscape:export-xdpi="96"
       inkscape:export-ydpi="96" /><rect
       style="fill:none;fill-opacity:0.222722;stroke:none;stroke-width:1.75002;stroke-linecap:round;stroke-linejoin:round;stroke-dasharray:none;stroke-opacity:1"
       id="diagonal"
       width="112"
       height="112"
       x="40"
       y="648"
       inkscape:export-filename="diagonal-1.png"
       inkscape:export-xdpi="96"
       inkscape:export-ydpi="96" /><rect
       style="fill:#000000;fill-opacity:0;stroke:none;stroke-width:65.4129;stroke-linejoin:round;stroke-opacity:0.5"
       id="ramp-east"
       width="512"
       height="208"
       x="32"
       y="784"
       inkscape:export-filename="./ramp-1.png"
       inkscape:export-xdpi="96"
       inkscape:export-ydpi="96" /><rect
       style="fill:none;fill-opacity:0.222722;stroke:none;stroke-width:2.49999;stroke-linecap:round;stroke-linejoin:round;stroke-dasharray:none;stroke-opacity:1"
       id="support"
       width="128"
       height="200"
       x="448"
       y="376"
       inkscape:export-filename="support.png"
       inkscape:export-xdpi="96"
       inkscape:export-ydpi="96" /></g><g
     inkscape:groupmode="layer"
     id="stone"
     inkscape:label="stone"
     style="display:inline"><path
       d="M 96,384 32,352 m 128,64 -64,-32"
       style="display:inline;fill:#b2b2b2;fill-opacity:1;stroke:#999999;stroke-width:48;stroke-linecap:butt;stroke-linejoin:round;stroke-dasharray:none;stroke-opacity:1"
       id="path3" /><path
       d="M 384,544 C 320,512 294,486 256,448"
       style="display:inline;fill:none;fill-opacity:1;stroke:#999999;stroke-width:48;stroke-linecap:butt;stroke-linejoin:round;stroke-dasharray:none;stroke-opacity:1"
       id="path9" /><path
       d="M 128,544 H 64"
       style="display:inline;fill:#b2b2b2;fill-opacity:1;stroke:#999999;stroke-width:48;stroke-linecap:butt;stroke-linejoin:round;stroke-dasharray:none;stroke-opacity:1"
       id="path7" /><path
       d="M 128 736 L 64 672"
       style="display:inline;fill:none;fill-opacity:0;stroke:#999999;stroke-width:48;stroke-linecap:butt;stroke-linejoin:round;stroke-dasharray:none;stroke-opacity:1"
       id="path1" /><path
       d="m 416,672 c -72,0 -96,0 -160,-32"
       style="display:inline;fill:none;fill-opacity:1;stroke:#999999;stroke-width:48;stroke-linecap:butt;stroke-linejoin:round;stroke-dasharray:none;stroke-opacity:1"
       id="path10" /><path
       style="color:#000000;fill:none;stroke:#000000;stroke-linejoin:round;stroke-opacity:1;-inkscape-stroke:none"
       d="m 54.099609,681.90039 64.000001,64 m 19.80078,-19.80078 -63.999999,-64"
       id="path54"
       sodipodi:nodetypes="cccc" /><path
       style="color:#000000;fill:none;stroke:#666666;stroke-width:2;stroke-linejoin:round;stroke-dasharray:none;stroke-opacity:1"
       d="m 21.267578,373.4668 64,32 64.000002,32 m 21.46484,-42.9336 -64,-32 -63.999998,-32"
       id="path105"
       sodipodi:nodetypes="cccccc" /><path
       style="color:#000000;fill:none;stroke:#666666;stroke-width:2;stroke-linejoin:round;stroke-dasharray:none;stroke-opacity:1"
       d="m 239.0293,464.9707 c 37.99996,37.99997 67.91283,67.33337 134.23828,100.4961 m 21.46484,-42.9336 C 333.05799,491.69599 310.97067,469.02926 272.9707,431.0293"
       id="path97"
       sodipodi:nodetypes="cccc" /><path
       style="color:#000000;fill:none;stroke:#666666;stroke-width:2;stroke-linejoin:round;stroke-dasharray:none;stroke-opacity:1"
       d="m 64,568 h 64 m 0,-48 H 64"
       id="path103"
       sodipodi:nodetypes="cccc" /><path
       style="color:#000000;fill:none;stroke:#666666;stroke-width:2;stroke-linejoin:round;stroke-dasharray:none;stroke-opacity:1"
       d="m 47.029297,688.9707 64.000003,64 m 33.9414,-33.9414 -63.999997,-64"
       id="path99"
       sodipodi:nodetypes="cccc" /><path
       style="color:#000000;fill:none;stroke:#666666;stroke-width:2;stroke-linejoin:round;stroke-dasharray:none;stroke-opacity:1"
       d="M 245.26758,661.4668 C 311.41414,694.54008 344.00007,696 416,696 m 0,-48 c -71.99993,0 -87.41427,1.45986 -149.26758,-29.4668"
       id="path100"
       sodipodi:nodetypes="cccc" /></g><g
     inkscape:groupmode="layer"
     id="sleepers"
     inkscape:label="sleepers"><path
       style="display:inline;fill:#999999;fill-opacity:1;stroke:#956a22;stroke-width:4;stroke-linecap:round;stroke-linejoin:round;stroke-dasharray:none;stroke-opacity:0.605521"
       d="M 518,726 H 486"
       id="path2"
       sodipodi:nodetypes="cc" /><path
       d="M 139.314 724.686 L 116.686 747.314 M 131.313 716.685 L 108.685 739.313 M 123.312 708.684 L 100.684 731.312 M 115.311 700.684 L 92.6836 723.311 M 107.31 692.683 L 84.6826 715.31 M 99.3091 684.682 L 76.6817 707.309 M 91.3082 676.681 L 68.6808 699.308 M 83.3073 668.68 L 60.6799 691.307 M 75.3064 660.679 L 52.679 683.306"
       style="display:inline;fill:#999999;fill-opacity:1;stroke:#956a22;stroke-width:4;stroke-linecap:round;stroke-linejoin:round;stroke-dasharray:none;stroke-opacity:1"
       id="path9821" /><path
       d="m 376.697,558.236 14.606,-28.472 m -24.152,23.574 14.606,-28.471 m -24.379,23.242 15.235,-28.14 m -24.924,22.699 15.907,-27.766 m -25.489,22.088 16.613,-27.348 m -26.063,21.413 17.345,-26.891 m -26.634,20.683 18.085,-26.398 m -27.188,19.913 18.819,-25.879 m -27.715,19.122 19.529,-25.349 m -28.496,18.078 20.796,-24.32 m -29.182,17.081 21.324,-23.859 m -29.494,16.454 21.764,-23.458 m -29.788,15.849 22.244,-23.004 m -29.957,15.546 22.244,-23.004 m -30.034,15.293 22.576,-22.679 m -30.18,15.11 22.576,-22.679"
       style="display:inline;fill:#999999;fill-opacity:1;stroke:#956a22;stroke-width:4;stroke-linecap:round;stroke-linejoin:round;stroke-dasharray:none;stroke-opacity:1"
       id="path2471" /><path
       d="m 415.96,688 0.08,-32 m -11.11,31.972 0.08,-32 m -11.11,31.973 0.08,-32 m -11.283,31.882 0.428,-31.997 m -11.687,31.727 0.893,-31.988 m -12.246,31.483 1.562,-31.961 m -13.401,31.063 3.245,-31.834 m -14.809,30.451 4.472,-31.685 m -16.377,29.642 6.543,-31.323 m -18.004,28.673 7.975,-30.99 m -19.589,27.625 10.016,-30.392 m -21.04,26.568 11.223,-29.966 m -22.12,25.652 12.507,-29.454 m -23.048,24.889 13.345,-29.083 m -23.691,24.284 14.024,-28.762 m -23.938,23.928 14.024,-28.762"
       style="display:inline;fill:#999999;fill-opacity:1;stroke:#956a22;stroke-width:4;stroke-linecap:round;stroke-linejoin:round;stroke-dasharray:none;stroke-opacity:1"
       id="path4753" /><path
       d="m 128,528 v 32 m -10.667,-32 v 32 m -10.667,-32 v 32 M 95.999,528 v 32 M 85.332,528 v 32 M 74.665,528 v 32 M 63.998,528 v 32"
       style="display:inline;fill:#999999;fill-opacity:1;stroke:#956a22;stroke-width:4;stroke-linecap:round;stroke-linejoin:round;stroke-dasharray:none;stroke-opacity:1"
       id="path9662" /><path
       d="M 88.8446,398.311 103.155,369.689 M 79.7259,393.751 94.0367,365.13 M 70.6072,389.192 84.918,360.57 M 61.4885,384.633 75.7994,356.011 M 52.3698,380.073 66.6807,351.452 M 43.2512,375.514 57.562,346.892 m -23.4295,24.063 14.3108,-28.622 m -23.4295,24.062 14.3108,-28.621 m 113.5204,92.537 14.31,-28.622 m -23.429,24.062 14.311,-28.621 m -23.43,24.062 14.311,-28.622 m -23.429,24.063 14.31,-28.622 m -23.429,24.062 14.311,-28.621 m -23.43,24.062 14.311,-28.622 m -23.4295,24.063 14.3105,-28.622 m -23.4292,24.062 14.3112,-28.621"
       style="display:inline;fill:#999999;fill-opacity:1;stroke:#956a22;stroke-width:4;stroke-linecap:round;stroke-linejoin:round;stroke-dasharray:none;stroke-opacity:1"
       id="path6482" /></g><g
     inkscape:label="metals"
     inkscape:groupmode="layer"
     id="metals"
     style="display:inline"><path
       id="path4"
       style="color:#000000;fill:none;stroke:#000000;stroke-linecap:round;stroke-linejoin:round;stroke-opacity:1;-inkscape-stroke:none"
       d="m 25.73828,364.52148 64,32 m 12.52344,-25.04296 -64,-32 m 51.47656,57.04296 64,32 m 12.52344,-25.04296 -64,-32" /><path
       style="color:#000000;fill:none;stroke:#000000;stroke-linecap:round;stroke-linejoin:round;stroke-opacity:1;-inkscape-stroke:none"
       d="m 246.09961,457.90039 c 43.99996,43.99996 66.59524,66.09938 131.63867,98.62109 m 12.52344,-25.04296 C 327.30528,500.0003 309.90035,482.09957 265.90039,438.09961"
       id="path41"
       sodipodi:nodetypes="cccc" /><path
       style="fill:none;fill-opacity:0.222722;stroke:#000000;stroke-width:1;stroke-linecap:round;stroke-linejoin:round;stroke-dasharray:none;stroke-opacity:1"
       d="m 63,530 h 66"
       id="path12"
       sodipodi:nodetypes="cc" /><path
       style="fill:none;fill-opacity:0.222722;stroke:#000000;stroke-width:1;stroke-linecap:round;stroke-linejoin:round;stroke-dasharray:none;stroke-opacity:1"
       d="m 63,558 h 66"
       id="path13"
       sodipodi:nodetypes="cc" /><path
       style="color:#000000;fill:none;stroke:#000000;stroke-linecap:round;stroke-linejoin:round;stroke-opacity:1;-inkscape-stroke:none"
       d="M 249.73828,652.52148 C 316.66001,685.9823 344.00007,686 416,686 m 0,-28 c -71.99993,0 -92.66014,0.0176 -153.73828,-30.52148"
       id="path44"
       sodipodi:nodetypes="cccc" /><rect
       style="fill:#404040;fill-opacity:1;stroke:#000000;stroke-width:2;stroke-linecap:round;stroke-linejoin:round;stroke-dasharray:none;stroke-opacity:1"
       id="rect109"
       width="387"
       height="126"
       x="33"
       y="865" /><path
       style="fill:#404040;fill-opacity:1;stroke:#000000;stroke-width:2;stroke-linecap:round;stroke-linejoin:round;stroke-dasharray:none;stroke-opacity:1"
       d="M 448,832 33,928 v 32 l 383,31 V 864 Z"
       id="path111"
       sodipodi:nodetypes="cccccc" /><path
       style="fill:#503030;fill-opacity:1;stroke:#0a0806;stroke-width:8;stroke-linecap:round;stroke-linejoin:round;stroke-dasharray:none;stroke-opacity:1"
       d="m 420,988 28,-124 h 64 l 28,124 H 420 V 868 l 28,-68 v 64 -64 h 64 v 64 -64 l 28,68 v 120"
       id="path62"
       sodipodi:nodetypes="cccccccccccccc" /><rect
       style="fill:#404040;fill-opacity:1;stroke:#000000;stroke-width:2;stroke-linecap:round;stroke-linejoin:round;stroke-dasharray:none;stroke-opacity:1"
       id="rect110"
       width="126"
       height="387"
       x="577"
       y="481" /><path
       d="m 32,928 c 144,0 304,-96 448,-96 h 64"
       style="fill:none;fill-opacity:0.341297;stroke:#999999;stroke-width:48;stroke-linejoin:round;stroke-opacity:1"
       id="path6" /><rect
       style="fill:#404040;fill-opacity:1;stroke:#000000;stroke-width:2;stroke-linecap:round;stroke-linejoin:round;stroke-dasharray:none;stroke-opacity:1"
       id="rect111"
       width="126"
       height="387"
       x="737"
       y="604" /><path
       d="m 32,912 v 32 m 10.9135,-32.196 v 32 m 10.9029,-32.517 v 32 m 10.8831,-32.839 v 32 M 75.5554,909.31 v 32 m 10.8263,-33.394 v 32 m 10.7848,-33.684 v 32 m 10.7505,-33.885 v 32 m 10.717,-34.072 v 32 m 10.683,-34.243 v 32 m 10.638,-34.447 v 32 m 10.603,-34.593 v 32 m 10.573,-34.711 v 32 m 10.546,-34.817 v 32 m 10.512,-34.945 v 32 m 10.487,-35.029 v 32 m 10.464,-35.108 v 32 m 10.441,-35.183 v 32 m 10.442,-35.183 v 32 m 10.423,-35.243 v 32 m 10.414,-35.272 v 32 m 10.414,-35.273 v 32 m 10.414,-35.272 v 32 m 10.414,-35.273 v 32 m 10.419,-35.255 v 32 m 10.441,-35.183 v 32 m 10.442,-35.183 v 32 m 10.459,-35.125 v 32 m 10.482,-35.046 v 32 m 10.511,-34.944 v 32 m 10.541,-34.837 v 32 m 10.568,-34.734 v 32 m 10.596,-34.62 v 32 m 10.638,-34.447 v 32 m 10.676,-34.274 v 32 m 10.71,-34.106 v 32 m 10.744,-33.925 v 32 m 10.784,-33.691 v 32 m 10.82,-33.443 v 32 m 10.851,-33.184 v 32 m 10.88,-32.87 v 32 m 10.9,-32.574 v 32 m 10.913,-32.226 v 32 M 489.393,816 v 32 m 10.916,-32 v 32 m 10.916,-32 v 32 m 10.916,-32 v 32 m 10.916,-32 v 32 m 10.916,-32 v 32"
       style="fill:#999999;fill-opacity:1;stroke:#956a22;stroke-width:4;stroke-linecap:round;stroke-linejoin:round;stroke-dasharray:none;stroke-opacity:1"
       id="path7837" /><path
       style="color:#000000;fill:none;stroke:#000000;stroke-linecap:round;stroke-linejoin:round;stroke-opacity:1;-inkscape-stroke:none"
       d="m 32,942 c 75.11104,0 152.21687,-24.65041 228.2168,-48.65039 C 336.21672,869.34963 411.11118,846 480,846 h 64 m 0,-28 H 480 C 404.88896,818 327.78313,842.65041 251.7832,866.65039 175.78328,890.65037 100.88882,914 32,914"
       id="path65"
       sodipodi:nodetypes="cssccssc" /><path
       style="color:#000000;fill:none;stroke:#bf4040;stroke-width:5;stroke-linecap:round;stroke-linejoin:round;stroke-dasharray:none;stroke-opacity:1"
       d="m 32,936 c 77.33326,0 155.22664,-25.11331 231.22656,-49.11328 C 339.22649,862.88674 413.3334,840 480,840 h 64 m 0,-48 H 480 C 402.66674,792 324.77336,817.11331 248.77344,841.11328 172.77351,865.11326 98.6666,888 32,888"
       id="path66"
       sodipodi:nodetypes="cssccssc" /><path
       style="fill:#404040;fill-opacity:1;stroke:#000000;stroke-width:2;stroke-linecap:round;stroke-linejoin:round;stroke-dasharray:none;stroke-opacity:1"
       d="M 577,864 H 703 L 672,481 h -64 z"
       id="path112"
       sodipodi:nodetypes="ccccc" /><path
       style="fill:#503030;fill-opacity:1;stroke:#0a0806;stroke-width:8;stroke-linecap:round;stroke-linejoin:round;stroke-dasharray:none;stroke-opacity:1"
       d="m 580,988 28,-124 h 64 l 28,124 H 580 V 868 l 28,-68 v 64 -64 h 64 v 64 -64 l 28,68 v 120"
       id="path53"
       sodipodi:nodetypes="cccccccccccccc" /><path
       d="M 640,480 V 896"
       style="fill:none;fill-opacity:1;stroke:#999999;stroke-width:48;stroke-linecap:butt;stroke-linejoin:round;stroke-dasharray:none;stroke-opacity:1"
       id="path48" /><path
       d="m 624,480 h 32 m -32,8.85 h 32 m -32,8.85 h 32 m -32,8.85 h 32 m -32,8.85 h 32 m -32,8.85 h 32 m -32,8.85 h 32 m -32,8.85 h 32 m -32,8.85 h 32 m -32,8.85 h 32 m -32,8.85 h 32 m -32,8.85 h 32 m -32,8.85 h 32 m -32,8.85 h 32 m -32,8.85 h 32 m -32,8.85 h 32 m -32,8.85 h 32 m -32,8.85 h 32 m -32,8.85 h 32 m -32,8.85 h 32 M 624,657 h 32 m -32,8.85 h 32 m -32,8.85 h 32 m -32,8.85 h 32 m -32,8.85 h 32 m -32,8.85 h 32 m -32,8.85 h 32 m -32,8.85 h 32 m -32,8.85 h 32 m -32,8.85 h 32 m -32,8.85 h 32 m -32,8.85 h 32 m -32,8.85 h 32 m -32,8.85 h 32 m -32,8.85 h 32 m -32,8.85 h 32 m -32,8.85 h 32 m -32,8.85 h 32 m -32,8.85 h 32 m -32,8.85 h 32 M 624,834 h 32 m -32,8.85 h 32 m -32,8.85 h 32 m -32,8.85 h 32 m -32,8.85 h 32 m -32,8.85 h 32 m -32,8.85 h 32 m -32,8.85 h 32"
       style="fill:#999999;fill-opacity:1;stroke:#956a22;stroke-width:4;stroke-linecap:round;stroke-linejoin:round;stroke-dasharray:none;stroke-opacity:1"
       id="path4094" /><path
       style="color:#000000;fill:none;stroke:#666666;stroke-width:2;stroke-linejoin:round;stroke-dasharray:none;stroke-opacity:1"
       d="m 32,952 c 77.33326,0 155.22664,-25.11331 231.22656,-49.11328 C 339.22649,878.88674 413.3334,856 480,856 h 64 m 0,-48 H 480 C 402.66674,808 324.77336,833.11331 248.77344,857.11328 172.77351,881.11326 98.6666,904 32,904"
       id="path106"
       sodipodi:nodetypes="cssccssc" /><path
       style="color:#000000;fill:none;stroke:#000000;stroke-linejoin:round;stroke-opacity:1;-inkscape-stroke:none"
       d="m 626,480 v 416 m 28,0 V 480"
       id="path49"
       sodipodi:nodetypes="cccc" /><path
       style="color:#000000;fill:none;stroke:#666666;stroke-width:2;stroke-linejoin:round;stroke-dasharray:none;stroke-opacity:1"
       d="M 664,896 V 480 m -48,0 v 416"
       id="path107"
       sodipodi:nodetypes="cccc" /><path
       style="color:#000000;fill:none;stroke:#bf4040;stroke-width:4;stroke-linecap:round;stroke-linejoin:round;stroke-dasharray:none;stroke-opacity:1"
       d="m 616,464 v 416 m 48,0 V 464"
       id="path67"
       sodipodi:nodetypes="cccc" /><path
       style="color:#000000;fill:none;stroke:#666666;stroke-width:2;stroke-linejoin:round;stroke-dasharray:none;stroke-opacity:1"
       d="m 776,384 v 608 m 48,0 V 384"
       id="path108"
       sodipodi:nodetypes="cccc" /><path
       style="fill:#503030;fill-opacity:1;stroke:#0a0806;stroke-width:8;stroke-linecap:round;stroke-linejoin:round;stroke-dasharray:none;stroke-opacity:1"
       d="m 740,604 28,-124 h 64 l 28,124 H 740 V 484 l 28,-68 v 64 -64 h 64 v 64 -64 l 28,68 v 120"
       id="path63"
       sodipodi:nodetypes="cccccccccccccc" /><path
       style="fill:#404040;fill-opacity:1;stroke:#000000;stroke-width:2;stroke-linecap:round;stroke-linejoin:round;stroke-dasharray:none;stroke-opacity:1"
       d="M 863,608 H 737 l 31,383 h 64 z"
       id="path113"
       sodipodi:nodetypes="ccccc" /><path
       d="M 800,384 V 992"
       style="fill:none;fill-opacity:1;stroke:#999999;stroke-width:48;stroke-linecap:butt;stroke-linejoin:round;stroke-dasharray:none;stroke-opacity:1"
       id="path50" /><path
       d="m 784,384 h 32 m -32,12.936 h 32 m -32,12.936 h 32 m -32,12.936 h 32 m -32,12.936 h 32 m -32,12.936 h 32 m -32,12.936 h 32 m -32,12.936 h 32 m -32,12.936 h 32 m -32,12.936 h 32 m -32,12.936 h 32 m -32,12.936 h 32 m -32,12.936 h 32 m -32,12.936 h 32 m -32,12.936 h 32 m -32,12.936 h 32 m -32,12.936 h 32 m -32,12.936 h 32 m -32,12.936 h 32 m -32,12.936 h 32 m -32,12.936 h 32 m -32,12.936 h 32 m -32,12.936 h 32 m -32,12.936 h 32 m -32,12.936 h 32 M 784,707.4 h 32 m -32,12.936 h 32 m -32,12.936 h 32 m -32,12.936 h 32 m -32,12.936 h 32 m -32,12.936 h 32 m -32,12.936 h 32 m -32,12.936 h 32 m -32,12.936 h 32 m -32,12.936 h 32 m -32,12.936 h 32 m -32,12.936 h 32 m -32,12.936 h 32 m -32,12.936 h 32 m -32,12.936 h 32 m -32,12.936 h 32 m -32,12.936 h 32 m -32,12.936 h 32 m -32,12.936 h 32 m -32,12.936 h 32 m -32,12.936 h 32 m -32,12.936 h 32 m -32,12.936 h 32"
       style="fill:#999999;fill-opacity:1;stroke:#956a22;stroke-width:4;stroke-linecap:round;stroke-linejoin:round;stroke-dasharray:none;stroke-opacity:1"
       id="path5146" /><path
       style="color:#000000;fill:none;stroke:#000000;stroke-linejoin:round;stroke-opacity:1;stroke-width:1;stroke-dasharray:none"
       d="m 786,384 v 608 m 28,0 V 384"
       id="path51"
       sodipodi:nodetypes="cccc" /><path
       style="color:#000000;fill:none;stroke:#bf4040;stroke-width:4;stroke-linecap:round;stroke-linejoin:round;stroke-dasharray:none;stroke-opacity:1"
       d="m 776,368 v 608 m 48,0 V 368"
       id="path68"
       sodipodi:nodetypes="cccc" /><path
       style="fill:#503030;fill-opacity:1;stroke:#0a0806;stroke-width:8;stroke-linecap:round;stroke-linejoin:round;stroke-dasharray:none;stroke-opacity:1"
       d="m 452,572 28,-124 h 64 l 28,124 H 452 V 452 l 28,-68 v 64 -64 h 64 v 64 -64 l 28,68 v 120"
       id="path25"
       sodipodi:nodetypes="cccccccccccccc" /></g><g
     inkscape:groupmode="layer"
     id="signals"
     inkscape:label="signals"><circle
       style="fill:none;fill-opacity:0;stroke:#00b000;stroke-width:4;stroke-linejoin:round;stroke-opacity:0.49868"
       id="circle26"
       cy="704"
       cx="512"
       r="4" /><use
       x="0"
       y="0"
       xlink:href="#circle26"
       id="use26"
       transform="translate(-112,16.000001)" /><use
       x="0"
       y="0"
       xlink:href="#circle26"
       id="use27"
       transform="translate(-112,-79.999999)" /><use
       x="0"
       y="0"
       xlink:href="#circle26"
       id="use28"
       transform="translate(-208,-79.999999)" /><use
       x="0"
       y="0"
       xlink:href="#circle26"
       id="use29"
       transform="translate(-240,-16)" /><use
       x="0"
       y="0"
       xlink:href="#circle26"
       id="use31"
       transform="translate(-368,-16)" /><use
       x="0"
       y="0"
       xlink:href="#circle26"
       id="use32"
       transform="translate(-400,-112)" /><use
       x="0"
       y="0"
       xlink:href="#circle26"
       id="use33"
       transform="translate(-432,-112)" /><use
       x="0"
       y="0"
       xlink:href="#circle26"
       id="use34"
       transform="translate(-400,-208)" /><use
       x="0"
       y="0"
       xlink:href="#circle26"
       id="use35"
       transform="translate(-432,-208)" /><use
       x="0"
       y="0"
       xlink:href="#circle26"
       id="use36"
       transform="translate(-144,-208)" /><use
       x="0"
       y="0"
       xlink:href="#circle26"
       id="use37"
       transform="translate(-176,-144)" /><use
       x="0"
       y="0"
       xlink:href="#circle26"
       id="use38"
       transform="translate(-208,-176)" /><use
       x="0"
       y="0"
       xlink:href="#circle26"
       id="use39"
       transform="translate(-272,-208)" /><use
       x="0"
       y="0"
       xlink:href="#circle26"
       id="use40"
       transform="translate(-400,-272)" /><use
       x="0"
       y="0"
       xlink:href="#circle26"
       id="use41"
       transform="translate(-464,-304)" /><use
       x="0"
       y="0"
       xlink:href="#circle26"
       id="use42"
       transform="translate(-368,-336)" /><use
       x="0"
       y="0"
       xlink:href="#circle26"
       id="use43"
       transform="translate(-432,-368)" /><use
       x="0"
       y="0"
       xlink:href="#circle26"
       id="use44"
       transform="translate(-208,-272)" /><use
       x="0"
       y="0"
       xlink:href="#circle26"
       id="use45"
       transform="translate(-400,-48)" /><use
       x="0"
       y="0"
       xlink:href="#circle26"
       id="use46"
       transform="translate(-432,48)" /><use
       x="0"
       y="0"
       xlink:href="#circle26"
       id="use47"
       transform="translate(-464,16)" /></g><g
     inkscape:groupmode="layer"
     id="fences"
     inkscape:label="fences"
     style="display:inline"><path
       style="color:#000000;fill:none;fill-opacity:0.5;stroke:#bf4040;stroke-width:4;stroke-linecap:round;stroke-linejoin:round;stroke-dasharray:none;stroke-opacity:1"
       d="m 64,568 h 64 m 0,-48 H 64"
       id="path69"
       sodipodi:nodetypes="cccc" /><path
       style="color:#000000;fill:none;fill-opacity:0.5;stroke:#bf4040;stroke-width:4;stroke-linecap:round;stroke-linejoin:round;stroke-dasharray:none;stroke-opacity:1"
       d="M 245.26758,661.4668 C 311.41414,694.54008 344.00007,696 416,696 m 0,-48 c -71.99993,0 -87.41427,1.45986 -149.26758,-29.4668"
       id="path70"
       sodipodi:nodetypes="cccc" /><path
       style="color:#000000;fill:none;fill-opacity:0.5;stroke:#bf4040;stroke-width:4;stroke-linecap:round;stroke-linejoin:round;stroke-dasharray:none;stroke-opacity:1"
       d="m 239.0293,464.9707 c 37.99996,37.99997 67.91283,67.33337 134.23828,100.4961 m 21.46484,-42.9336 C 333.05799,491.69599 310.97067,469.02926 272.9707,431.0293"
       id="path71"
       sodipodi:nodetypes="cccc" /><path
       style="color:#000000;fill:none;fill-opacity:0.5;stroke:#bf4040;stroke-width:4;stroke-linecap:round;stroke-linejoin:round;stroke-dasharray:none;stroke-opacity:1"
       d="m 21.267578,373.4668 64,32 64.000002,32 m 21.46484,-42.9336 -64,-32 -63.999998,-32"
       id="path72"
       sodipodi:nodetypes="cccccc" /><path
       style="color:#000000;fill:none;fill-opacity:0.5;stroke:#bf4040;stroke-width:4;stroke-linecap:round;stroke-linejoin:round;stroke-dasharray:none;stroke-opacity:1"
       d="m 47.029297,688.9707 64.000003,64 m 33.9414,-33.9414 -63.999997,-64"
       id="path73"
       sodipodi:nodetypes="cccc" /></g><g
     inkscape:groupmode="layer"
     id="connections"
     inkscape:label="connections"><circle
       style="fill:none;fill-opacity:0;stroke:#4b0c00;stroke-width:4;stroke-linejoin:round;stroke-opacity:1"
       id="circle26-5"
       cy="753.36981"
       cx="512"
       r="4" /><use
       x="0"
       y="0"
       xlink:href="#circle26-5"
       id="use55"
       transform="translate(-96,-81.369812)" /><use
       x="0"
       y="0"
       xlink:href="#circle26-5"
       id="use56"
       transform="translate(-256,-113.36981)" /><use
       x="0"
       y="0"
       xlink:href="#circle26-5"
       id="use57"
       transform="translate(-384,-17.369812)" /><use
       x="0"
       y="0"
       xlink:href="#circle26-5"
       id="use58"
       transform="translate(-448,-81.369812)" /><use
       x="0"
       y="0"
       xlink:href="#circle26-5"
       id="use59"
       transform="translate(-384,-209.36981)" /><use
       x="0"
       y="0"
       xlink:href="#circle26-5"
       id="use60"
       transform="translate(-448,-209.36981)" /><use
       x="0"
       y="0"
       xlink:href="#circle26-5"
       id="use61"
       transform="translate(-352,-337.36981)" /><use
       x="0"
       y="0"
       xlink:href="#circle26-5"
       id="use62"
       transform="translate(-480,-401.36981)" /><use
       x="0"
       y="0"
       xlink:href="#circle26-5"
       id="use63"
       transform="translate(-256,-305.36981)" /><use
       x="0"
       y="0"
       xlink:href="#circle26-5"
       id="use64"
       transform="translate(-128,-209.36981)" /><use
       x="0"
       y="0"
       xlink:href="#circle26-5"
       id="use65"
       transform="translate(0,-337.36981)" /></g></svg>
